<?xml version="1.0" standalone="no"?><!DOCTYPE svg PUBLIC "-//W3C//DTD SVG 1.1//EN" "http://www.w3.org/Graphics/SVG/1.1/DTD/svg11.dtd"><svg t="1736144423259" class="icon" style="width: 1em;height: 1em;vertical-align: middle;fill: currentColor;overflow: hidden;" viewBox="0 0 1024 1024" version="1.1" xmlns="http://www.w3.org/2000/svg" p-id="1605" width="32" height="32" xmlns:xlink="http://www.w3.org/1999/xlink"><path d="M131.413333 158.72H494.933333v725.333333H131.413333z" fill="#333333" p-id="1606"></path><path d="M494.933333 909.653333H131.413333c-13.653333 0-25.6-11.946667-25.6-25.6V158.72c0-13.653333 11.946667-25.6 25.6-25.6H494.933333c13.653333 0 25.6 11.946667 25.6 25.6v725.333333c0 15.36-11.946667 25.6-25.6 25.6z m-337.92-51.2h312.32V184.32H157.013333v674.133333z" fill="#333333" p-id="1607"></path><path d="M580.266667 184.32h-85.333334c-13.653333 0-25.6-11.946667-25.6-25.6s11.946667-25.6 25.6-25.6h85.333334c13.653333 0 25.6 11.946667 25.6 25.6s-11.946667 25.6-25.6 25.6zM728.746667 184.32h-42.666667c-13.653333 0-25.6-11.946667-25.6-25.6s11.946667-25.6 25.6-25.6h42.666667c13.653333 0 25.6 11.946667 25.6 25.6s-11.946667 25.6-25.6 25.6zM728.746667 909.653333h-42.666667c-13.653333 0-25.6-11.946667-25.6-25.6s11.946667-25.6 25.6-25.6h42.666667c13.653333 0 25.6 11.946667 25.6 25.6s-11.946667 25.6-25.6 25.6zM856.746667 226.986667c-13.653333 0-25.6-11.946667-25.6-25.6V158.72c0-13.653333 11.946667-25.6 25.6-25.6s25.6 11.946667 25.6 25.6v42.666667c0 15.36-11.946667 25.6-25.6 25.6zM856.746667 397.653333c-13.653333 0-25.6-11.946667-25.6-25.6v-42.666666c0-13.653333 11.946667-25.6 25.6-25.6s25.6 11.946667 25.6 25.6v42.666666c0 15.36-11.946667 25.6-25.6 25.6zM856.746667 568.32c-13.653333 0-25.6-11.946667-25.6-25.6v-42.666667c0-13.653333 11.946667-25.6 25.6-25.6s25.6 11.946667 25.6 25.6v42.666667c0 15.36-11.946667 25.6-25.6 25.6zM856.746667 738.986667c-13.653333 0-25.6-11.946667-25.6-25.6v-42.666667c0-13.653333 11.946667-25.6 25.6-25.6s25.6 11.946667 25.6 25.6v42.666667c0 15.36-11.946667 25.6-25.6 25.6zM856.746667 909.653333c-13.653333 0-25.6-11.946667-25.6-25.6v-42.666666c0-13.653333 11.946667-25.6 25.6-25.6s25.6 11.946667 25.6 25.6v42.666666c0 15.36-11.946667 25.6-25.6 25.6zM558.08 909.653333H494.933333c-13.653333 0-25.6-11.946667-25.6-25.6s11.946667-25.6 25.6-25.6h64.853334c13.653333 0 25.6 11.946667 25.6 25.6s-13.653333 25.6-27.306667 25.6z" fill="#333333" p-id="1608"></path><path d="M494.933333 974.506667c-13.653333 0-25.6-11.946667-25.6-25.6v-853.333334c0-13.653333 11.946667-25.6 25.6-25.6s25.6 11.946667 25.6 25.6v853.333334c0 13.653333-11.946667 25.6-25.6 25.6z" fill="#333333" p-id="1609"></path></svg>