<svg class="icon" style="width: 30px;height: 30px;vertical-align: middle;fill: currentColor;overflow: hidden;" viewBox="0 0 1024 1024" version="1.1" xmlns="http://www.w3.org/2000/svg" p-id="4649"><path d="M796.4672 426.7008c0 15.6672-12.6976 28.4672-28.4672 28.4672s-28.4672-12.6976-28.4672-28.4672v-101.9904L609.0752 455.0656c-11.0592 11.0592-29.0816 11.0592-40.2432 0-11.0592-11.0592-11.0592-29.0816 0-40.2432l130.4576-130.4576h-101.9904c-15.6672 0-28.4672-12.6976-28.4672-28.4672s12.6976-28.4672 28.4672-28.4672H768c15.6672 0 28.4672 12.6976 28.4672 28.4672v170.8032zM455.0656 609.0752L324.7104 739.5328h101.9904c15.6672 0 28.4672 12.6976 28.4672 28.4672s-12.6976 28.4672-28.4672 28.4672H256c-15.6672 0-28.4672-12.6976-28.4672-28.4672V597.2992c0-15.6672 12.6976-28.4672 28.4672-28.4672s28.4672 12.6976 28.4672 28.4672v101.9904l130.4576-130.4576c11.0592-11.0592 29.0816-11.0592 40.2432 0 11.0592 11.1616 11.0592 29.184-0.1024 40.2432z m398.2336-495.3088H170.7008c-31.4368 0-56.9344 25.3952-56.9344 56.9344v682.7008c0 31.4368 25.3952 56.9344 56.9344 56.9344h682.7008c31.4368 0 56.9344-25.3952 56.9344-56.9344V170.7008c-0.1024-31.5392-25.4976-56.9344-57.0368-56.9344z" fill="#777" p-id="4650"></path></svg>